<svg width="30" height="34" viewBox="0 0 30 34" fill="none" xmlns="http://www.w3.org/2000/svg">
<g filter="url(#filter0_d)">
<path fill-rule="evenodd" clip-rule="evenodd" d="M18.3003 21.3766C22.57 19.9396 25.6451 15.9037 25.6451 11.1496C25.6451 5.1914 20.815 0.361328 14.8568 0.361328C8.89864 0.361328 4.06857 5.1914 4.06857 11.1496C4.06857 16.1329 7.44738 20.3271 12.0391 21.5662L14.2879 24.7194C14.6867 25.2785 15.5175 25.2785 15.9162 24.7194L18.3003 21.3766Z" fill="white"/>
</g>
<g style="mix-blend-mode:multiply" filter="url(#filter1_f)">
<ellipse cx="15.1117" cy="27.0705" rx="9.5022" ry="1.02726" fill="url(#paint0_linear)" fill-opacity="0.2"/>
<ellipse cx="15.1117" cy="27.0705" rx="9.5022" ry="1.02726" fill="url(#paint1_radial)" fill-opacity="0.2"/>
</g>
<g style="mix-blend-mode:multiply" opacity="0.3" filter="url(#filter2_f)">
<ellipse cx="15.1115" cy="26.8132" rx="1.79771" ry="0.256816" fill="black"/>
</g>
<path d="M23.0412 11.0851C23.0412 15.6409 19.348 19.334 14.7923 19.334C10.2365 19.334 6.54335 15.6409 6.54335 11.0851C6.54335 6.52935 10.2365 2.83618 14.7923 2.83618C19.348 2.83618 23.0412 6.52935 23.0412 11.0851Z" fill="#FFCD11"/>
<path fill-rule="evenodd" clip-rule="evenodd" d="M10.7776 10.4062H17.025C17.1128 10.4062 17.1843 10.4885 17.1843 10.5922V11.6852C17.1843 11.7864 17.1128 11.8712 17.025 11.8712H10.7776C10.6898 11.8712 10.6184 11.7889 10.6184 11.6852V10.5922C10.6184 10.491 10.6898 10.4062 10.7776 10.4062Z" fill="black"/>
<path fill-rule="evenodd" clip-rule="evenodd" d="M18.0778 14.1256V10.6561C18.0778 10.555 18.1492 10.4702 18.2371 10.4702C18.3003 10.4702 18.3554 10.5148 18.3822 10.5764L20.1087 14.1143C20.1109 14.1187 20.1126 14.1237 20.1147 14.1281C20.1229 14.1514 20.1289 14.1752 20.1289 14.1985V14.3869L19.9794 14.3895H19.9609H19.9691H19.9571H19.9631H18.2365C18.1487 14.3895 18.0772 14.3072 18.0772 14.206V14.1263L18.0778 14.1256Z" fill="black"/>
<path fill-rule="evenodd" clip-rule="evenodd" d="M20.1082 14.1157C20.1082 14.1133 20.1059 14.1116 20.1059 14.1116L20.1082 14.1157Z" fill="black"/>
<path fill-rule="evenodd" clip-rule="evenodd" d="M16.5566 9.47309V10.5919H16.2374V9.47309C16.1436 9.40965 16.0781 9.28967 16.0781 9.15272C16.0781 8.94794 16.221 8.78271 16.3951 8.78271C16.5707 8.78271 16.712 8.94729 16.712 9.15272C16.712 9.28903 16.6487 9.40965 16.5527 9.47309H16.5566Z" fill="black"/>
<path fill-rule="evenodd" clip-rule="evenodd" d="M15.3061 10.4976L13.4791 7.28448C13.4524 7.22795 13.3995 7.18774 13.34 7.18774H10.7787C10.6909 7.18774 10.6194 7.27004 10.6194 7.37368V10.5913C10.6194 10.4901 10.6909 10.4996 10.7787 10.4996H15.3055L15.3061 10.4976ZM13.1174 7.88995L14.2816 9.87811C14.3306 9.96291 14.3121 10.0785 14.2385 10.135C14.2117 10.1564 14.179 10.1677 14.1484 10.1677H11.3805C11.2926 10.1677 11.2212 10.0854 11.2212 9.98177V7.97979C11.2212 7.87865 11.2927 7.79385 11.3805 7.79385H12.9762C13.0356 7.79385 13.0886 7.83154 13.1153 7.89059L13.1174 7.88995Z" fill="black"/>
<path fill-rule="evenodd" clip-rule="evenodd" d="M13.5795 13.4797C13.4671 13.6091 13.3139 13.6896 13.1436 13.6896C12.974 13.6896 12.8185 13.6098 12.7078 13.4797C12.5954 13.3503 12.5277 13.1713 12.5277 12.9734C12.5277 12.7756 12.597 12.5965 12.7078 12.4671C12.8201 12.3377 12.9734 12.2573 13.1436 12.2573C13.3133 12.2573 13.4688 12.3371 13.5795 12.4671C13.6919 12.5965 13.7596 12.7756 13.7596 12.9734C13.7596 13.1713 13.6903 13.3503 13.5795 13.4797ZM17.186 11.4985H10.6194C10.3554 11.4985 10.1142 11.6235 9.94021 11.8258C9.76618 12.0281 9.65817 12.3089 9.65817 12.6148V13.3309C9.65817 13.6394 9.76673 13.9176 9.94021 14.1199C10.1142 14.3222 10.3554 14.4472 10.6194 14.4472H17.4314C17.6092 14.4472 17.775 14.3907 17.918 14.2939V11.6511C17.775 11.5525 17.6092 11.4978 17.4314 11.4978H17.1859L17.186 11.4985ZM14.4714 13.4797C14.359 13.3503 14.2913 13.1713 14.2913 12.9734C14.2913 12.7756 14.3606 12.5965 14.4714 12.4671C14.5837 12.3377 14.737 12.2573 14.9072 12.2573C15.0769 12.2573 15.2324 12.3371 15.3431 12.4671C15.4555 12.5965 15.5231 12.7756 15.5231 12.9734C15.5231 13.1713 15.4539 13.3503 15.3431 13.4797C15.2307 13.6091 15.0774 13.6896 14.9072 13.6896C14.7376 13.6896 14.5821 13.6098 14.4714 13.4797ZM11.8141 12.4671C11.9265 12.5965 11.9942 12.7755 11.9942 12.9734C11.9942 13.1713 11.9249 13.3503 11.8141 13.4797C11.7018 13.6091 11.5485 13.6895 11.3783 13.6895C11.2086 13.6895 11.0531 13.6098 10.9424 13.4797C10.83 13.3503 10.7624 13.1713 10.7624 12.9734C10.7624 12.7755 10.8316 12.5965 10.9424 12.4671C11.0548 12.3377 11.2081 12.2573 11.3783 12.2573C11.5479 12.2573 11.7034 12.3371 11.8141 12.4671ZM16.0545 12.9734C16.0545 12.7755 16.1238 12.5965 16.2345 12.4671C16.3469 12.3377 16.5002 12.2573 16.6704 12.2573C16.8401 12.2573 16.9955 12.3371 17.1063 12.4671C17.2187 12.5965 17.2863 12.7755 17.2863 12.9734C17.2863 13.1713 17.217 13.3503 17.1063 13.4797C16.9939 13.6091 16.8406 13.6895 16.6704 13.6895C16.5007 13.6895 16.3453 13.6098 16.2345 13.4797C16.1221 13.3503 16.0545 13.1713 16.0545 12.9734Z" fill="black"/>
<defs>
<filter id="filter0_d" x="0.0685654" y="0.361328" width="29.5765" height="32.7774" filterUnits="userSpaceOnUse" color-interpolation-filters="sRGB">
<feFlood flood-opacity="0" result="BackgroundImageFix"/>
<feColorMatrix in="SourceAlpha" type="matrix" values="0 0 0 0 0 0 0 0 0 0 0 0 0 0 0 0 0 0 127 0" result="hardAlpha"/>
<feOffset dy="4"/>
<feGaussianBlur stdDeviation="2"/>
<feColorMatrix type="matrix" values="0 0 0 0 0 0 0 0 0 0 0 0 0 0 0 0 0 0 0.25 0"/>
<feBlend mode="normal" in2="BackgroundImageFix" result="effect1_dropShadow"/>
<feBlend mode="normal" in="SourceGraphic" in2="effect1_dropShadow" result="shape"/>
</filter>
<filter id="filter1_f" x="2.10952" y="22.5432" width="26.0044" height="9.05453" filterUnits="userSpaceOnUse" color-interpolation-filters="sRGB">
<feFlood flood-opacity="0" result="BackgroundImageFix"/>
<feBlend mode="normal" in="SourceGraphic" in2="BackgroundImageFix" result="shape"/>
<feGaussianBlur stdDeviation="1.75" result="effect1_foregroundBlur"/>
</filter>
<filter id="filter2_f" x="11.3138" y="24.5564" width="7.59543" height="4.51363" filterUnits="userSpaceOnUse" color-interpolation-filters="sRGB">
<feFlood flood-opacity="0" result="BackgroundImageFix"/>
<feBlend mode="normal" in="SourceGraphic" in2="BackgroundImageFix" result="shape"/>
<feGaussianBlur stdDeviation="1" result="effect1_foregroundBlur"/>
</filter>
<linearGradient id="paint0_linear" x1="8.04031" y1="27.0705" x2="25.2769" y2="27.0705" gradientUnits="userSpaceOnUse">
<stop/>
<stop offset="1" stop-opacity="0"/>
</linearGradient>
<radialGradient id="paint1_radial" cx="0" cy="0" r="1" gradientUnits="userSpaceOnUse" gradientTransform="translate(15.1117 27.0705) rotate(90) scale(1.02726 9.5022)">
<stop/>
<stop offset="1" stop-opacity="0"/>
</radialGradient>
</defs>
</svg>
